<?xml version="1.0" standalone="no"?>
<!DOCTYPE svg PUBLIC "-//W3C//DTD SVG 1.1//EN" "http://www.w3.org/Graphics/SVG/1.1/DTD/svg11.dtd" >
<svg xmlns="http://www.w3.org/2000/svg">
<metadata>Generated by IcoMoon</metadata>
<defs>
<font id="icomoon" horiz-adv-x="1024">
<font-face units-per-em="1024" ascent="960" descent="-64" />
<missing-glyph horiz-adv-x="1024" />
<glyph unicode="&#x20;" horiz-adv-x="512" d="" />
<glyph unicode="&#xe900;" horiz-adv-x="786" d="M548.571 960c0 0-521.874 0-530.286 0-6.217 0-18.286-12.069-18.286-36.571 0 1.28 0-969.143 0-969.143 0-6.4 12.069-18.286 18.286-18.286 8.411 0 741.303 0 749.714 0 6.4 0 18.286 11.886 18.286 18.286 0 0 0 768.366 0 768 0 13.166-1.646 17.189 0 18.286-4.754 2.011-217.417 214.674-219.429 219.429-1.097-1.646-5.12 0-18.286 0 8.96 0 0 0 0 0z" />
<glyph unicode="&#xe901;" horiz-adv-x="786" d="M566.857 960v-216.686h216.686z" />
<glyph unicode="&#xe902;" horiz-adv-x="786" d="M203.52 354.926c-19.017 14.263-21.577 30.171-20.48 40.96 3.474 29.806 40.229 60.891 109.531 92.709 27.429 60.343 53.577 134.583 69.303 196.571-18.286 39.68-36.023 91.246-23.040 121.417 4.389 10.606 10.057 18.834 20.663 22.309 4.206 1.28 14.629 3.109 18.651 3.109 9.143 0 17.189-11.886 23.040-19.2 5.303-6.949 17.554-21.394-6.949-124.343 24.686-51.017 59.611-102.766 93.074-138.24 23.954 4.206 44.617 6.4 61.44 6.4 28.709 0 45.897-6.583 53.029-20.297 5.851-11.337 3.474-24.686-7.131-39.497-10.24-14.263-24.137-21.76-40.594-21.76-22.126 0-48.091 13.897-76.983 41.691-51.931-10.789-112.457-30.171-161.463-51.566-15.177-32.366-29.806-58.514-43.52-77.714-18.834-26.331-34.926-38.583-50.834-38.583-6.4 0-12.617 2.194-17.737 6.034zM333.714 505.966c38.217 14.811 79.726 27.794 118.857 36.937-24.686 28.709-49.371 64.549-70.034 101.303-12.983-45.166-30.171-93.989-48.823-138.24zM213.76 392.594c-0.183-1.829-0.731-6.217 7.863-12.8 2.743 0.914 18.651 8.229 48.274 62.903-39.131-21.943-55.040-40.046-56.137-50.103zM547.474 506.697c4.389 0 16.457 0.183 22.126 8.046 2.743 3.84 3.84 6.217 4.206 7.497-2.194 1.28-5.12 3.657-21.394 3.657-9.326 0-20.846-0.366-33.28-2.011 14.994-11.337 18.651-17.189 28.343-17.189zM373.211 740.206c17.371 38.583-0.914 59.063-1.646 58.88-1.829-0.731-24.32-32.183 1.646-58.88z" />
<glyph unicode="&#xe903;" horiz-adv-x="786" d="M768-64c0 0-741.303 0-749.714 0-6.217 0-18.286 11.886-18.286 18.286 0 8.411 0 292.571 0 292.571h786.286c0 0 0-284.16 0-292.571 0-6.4-11.886-18.286-18.286-18.286-8.411 0 0 0 0 0z" />
<glyph unicode="&#xe904;" horiz-adv-x="786" d="M164.571-10.606v184.32h53.029c7.863 0 15.543-1.28 23.223-3.84 7.68-2.377 14.446-6.217 20.663-11.154 6.034-4.937 10.971-10.971 14.629-18.103 3.84-7.131 5.669-14.994 5.669-23.954 0-9.326-1.463-17.737-4.754-25.417-3.109-7.497-7.497-13.897-13.166-19.017s-12.617-9.143-20.48-12.069c-8.046-2.743-16.823-4.206-26.514-4.206h-22.309v-66.56zM194.56 77.897h27.611c3.657 0 7.131 0.731 10.789 2.011 3.657 1.097 6.949 3.291 9.874 6.034 2.926 2.926 5.486 6.766 7.314 11.886s2.743 11.337 2.743 18.834c0 3.109-0.549 6.583-1.28 10.423-0.914 3.84-2.56 7.68-5.12 11.154-2.56 3.657-6.217 6.583-10.971 9.143-4.571 2.377-10.789 3.657-18.469 3.657h-22.491z" />
<glyph unicode="&#xe905;" horiz-adv-x="786" d="M454.766 47.909c-3.291-10.789-7.314-19.749-12.434-27.063-4.937-7.314-10.606-12.983-16.823-17.189s-12.251-7.314-18.103-9.326c-5.851-2.194-11.154-3.474-16.091-4.023-4.754-0.549-8.411-0.914-10.789-0.914h-69.669v184.32h55.589c15.36 0 29.074-2.56 40.777-7.314 11.703-4.937 21.577-11.52 29.257-19.749 7.68-8.046 13.531-17.371 17.371-27.794s5.851-21.211 5.851-32.183c0-15.177-1.646-28.16-4.937-38.766zM414.537 30.903c9.143 12.983 13.531 31.817 13.531 56.503 0 7.68-0.914 15.36-2.743 22.857s-5.303 14.263-10.606 20.297c-5.303 6.034-12.434 10.971-21.394 14.811-8.96 3.657-20.663 5.669-34.926 5.669h-17.554v-139.52h29.806c20.297 0 34.926 6.4 43.886 19.383z" />
<glyph unicode="&#xe906;" horiz-adv-x="786" d="M542.537 151.040v-58.149h76.983v-20.48h-76.983v-83.017h-30.537v184.32h115.2v-22.674z" />
<glyph unicode="&#xe907;" horiz-adv-x="786" d="M548.571 960c0 0-521.874 0-530.286 0-6.217 0-18.286-12.069-18.286-36.571 0 1.28 0-969.143 0-969.143 0-6.4 12.069-18.286 18.286-18.286 8.411 0 741.303 0 749.714 0 6.4 0 18.286 11.886 18.286 18.286 0 0 0 768.366 0 768 0 13.166-1.646 17.189 0 18.286-4.754 2.011-217.417 214.674-219.429 219.429-1.097-1.646-5.12 0-18.286 0 8.96 0 0 0 0 0z" />
<glyph unicode="&#xe908;" horiz-adv-x="786" d="M566.857 960v-216.686h216.686z" />
<glyph unicode="&#xe909;" horiz-adv-x="786" d="M768-64c0 0-741.303 0-749.714 0-6.217 0-18.286 11.886-18.286 18.286 0 8.411 0 292.571 0 292.571h786.286c0 0 0-284.16 0-292.571 0-6.4-11.886-18.286-18.286-18.286-8.411 0 0 0 0 0z" />
<glyph unicode="&#xe90a;" horiz-adv-x="786" d="M253.623 78.994l46.629-89.6h-34.743l-29.257 69.486h-2.377l-31.634-69.486h-34.743l46.811 89.6-49.737 94.72h34.194l32.549-74.971h2.56l35.291 74.971h34.194l-49.737-94.72z" />
<glyph unicode="&#xe90b;" horiz-adv-x="786" d="M359.68 173.714v-161.463h84.663v-22.857h-115.2v184.32z" />
<glyph unicode="&#xe90c;" horiz-adv-x="786" d="M582.4 36.937c0-6.583-1.28-13.166-4.023-19.383s-6.766-11.703-11.703-16.457c-4.937-4.754-11.154-8.594-18.469-11.337-7.314-2.926-15.726-4.206-25.051-4.206-4.023 0-8.046 0.183-12.251 0.549-4.389 0.366-8.594 1.097-12.983 2.194-4.389 0.914-8.411 2.377-12.434 4.023-3.84 1.829-7.131 3.84-10.057 6.4l5.303 21.577c2.194-1.463 5.303-2.743 8.777-4.023 3.657-1.097 7.314-2.377 11.154-3.474s7.68-1.829 11.52-2.56c3.84-0.731 7.314-1.097 10.789-1.097 10.057 0 17.92 2.377 23.406 7.131 5.303 4.754 8.046 11.886 8.046 21.211 0 5.669-2.011 10.423-5.669 14.446-4.023 4.023-8.777 7.68-14.446 10.971s-12.069 6.4-18.651 9.691c-6.583 3.291-12.983 7.131-18.834 11.52-5.669 4.389-10.606 9.691-14.446 15.543-3.84 6.034-5.669 13.531-5.669 22.491 0 8.229 1.463 15.543 4.389 21.76 3.109 6.4 7.131 11.703 12.251 16.091 5.12 4.571 10.971 7.863 17.737 10.24s13.897 3.474 21.394 3.474c7.68 0 15.36-0.731 23.223-2.194 7.863-1.28 14.080-3.657 19.017-6.766-1.097-2.194-2.194-4.571-3.474-7.131-1.463-2.56-2.743-5.12-3.84-7.314s-2.194-4.023-2.926-5.669c-0.914-1.463-1.463-2.194-1.463-2.377-1.097 0.366-2.194 1.097-3.474 2.011-1.28 0.731-3.109 1.646-5.303 2.377-2.377 0.914-5.486 1.463-9.326 1.829s-8.777 0.183-14.811-0.366c-3.291-0.183-6.4-1.28-9.509-2.743-2.926-1.646-5.669-3.657-7.863-5.851-2.377-2.377-4.206-4.937-5.669-7.863-1.28-2.926-1.829-5.851-1.829-8.411 0-6.766 1.829-12.069 5.669-16.091 3.84-4.206 8.594-7.68 14.263-10.789s11.886-6.217 18.469-8.96c6.583-2.926 12.8-6.583 18.651-10.789 5.669-4.023 10.423-9.326 14.446-15.543 3.84-6.217 5.669-14.263 5.669-24.137z" />
<glyph unicode="&#xe90d;" horiz-adv-x="786" d="M310.857 740.571h-219.429v-402.286h603.429v329.143h-384zM310.857 374.857v36.571h347.429v-36.571zM310.857 448v36.571h347.429v-36.571zM310.857 521.143v36.571h347.429v-36.571zM274.286 704v-36.571h-146.286v36.571zM274.286 630.857v-36.571h-146.286v36.571zM274.286 557.714v-36.571h-146.286v36.571zM274.286 484.571v-36.571h-146.286v36.571zM128 374.857v36.571h146.286v-36.571zM310.857 630.857h347.429v-36.571h-347.429z" />
<glyph unicode="&#xe90e;" horiz-adv-x="786" d="M548.571 960c0 0-521.874 0-530.286 0-6.217 0-18.286-12.069-18.286-36.571 0 1.28 0-969.143 0-969.143 0-6.4 12.069-18.286 18.286-18.286 8.411 0 741.303 0 749.714 0 6.4 0 18.286 11.886 18.286 18.286 0 0 0 768.366 0 768 0 13.166-1.646 17.189 0 18.286-4.754 2.011-217.417 214.674-219.429 219.429-1.097-1.646-5.12 0-18.286 0 8.96 0 0 0 0 0z" />
<glyph unicode="&#xe90f;" horiz-adv-x="786" d="M566.857 960v-216.686h216.686z" />
<glyph unicode="&#xe910;" horiz-adv-x="786" d="M219.429 722.286h-109.714c-10.057 0-18.286 8.229-18.286 18.286s8.229 18.286 18.286 18.286h109.714c10.057 0 18.286-8.229 18.286-18.286s-8.229-18.286-18.286-18.286z" />
<glyph unicode="&#xe911;" horiz-adv-x="786" d="M274.286 630.857h-164.571c-10.057 0-18.286 8.229-18.286 18.286s8.229 18.286 18.286 18.286h164.571c10.057 0 18.286-8.229 18.286-18.286s-8.229-18.286-18.286-18.286z" />
<glyph unicode="&#xe912;" horiz-adv-x="786" d="M347.429 631.040c-4.754 0-9.509 2.011-12.983 5.303-3.291 3.474-5.303 8.229-5.303 12.983s2.011 9.509 5.303 12.983c6.766 6.766 19.2 6.766 25.966 0 3.291-3.474 5.303-8.229 5.303-12.983s-2.011-9.509-5.303-12.983c-3.474-3.291-8.229-5.303-12.983-5.303z" />
<glyph unicode="&#xe913;" horiz-adv-x="786" d="M566.857 630.857h-146.286c-10.057 0-18.286 8.229-18.286 18.286s8.229 18.286 18.286 18.286h146.286c10.057 0 18.286-8.229 18.286-18.286s-8.229-18.286-18.286-18.286z" />
<glyph unicode="&#xe914;" horiz-adv-x="786" d="M109.714 356.754c-4.754 0-9.509 2.011-12.983 5.303-3.291 3.474-5.303 8.229-5.303 12.983s2.011 9.509 5.303 12.983c6.766 6.766 19.2 6.766 25.966 0 3.291-3.474 5.303-8.046 5.303-12.983 0-4.754-2.011-9.509-5.303-12.983-3.474-3.291-8.229-5.303-12.983-5.303z" />
<glyph unicode="&#xe915;" horiz-adv-x="786" d="M329.143 356.571h-146.286c-10.057 0-18.286 8.229-18.286 18.286s8.229 18.286 18.286 18.286h146.286c10.057 0 18.286-8.229 18.286-18.286s-8.229-18.286-18.286-18.286z" />
<glyph unicode="&#xe916;" horiz-adv-x="786" d="M676.571 630.857h-36.571c-10.057 0-18.286 8.229-18.286 18.286s8.229 18.286 18.286 18.286h36.571c10.057 0 18.286-8.229 18.286-18.286s-8.229-18.286-18.286-18.286z" />
<glyph unicode="&#xe917;" horiz-adv-x="786" d="M512 539.429h-402.286c-10.057 0-18.286 8.229-18.286 18.286s8.229 18.286 18.286 18.286h402.286c10.057 0 18.286-8.229 18.286-18.286s-8.229-18.286-18.286-18.286z" />
<glyph unicode="&#xe918;" horiz-adv-x="786" d="M676.571 539.429h-109.714c-10.057 0-18.286 8.229-18.286 18.286s8.229 18.286 18.286 18.286h109.714c10.057 0 18.286-8.229 18.286-18.286s-8.229-18.286-18.286-18.286z" />
<glyph unicode="&#xe919;" horiz-adv-x="786" d="M182.857 448h-73.143c-10.057 0-18.286 8.229-18.286 18.286s8.229 18.286 18.286 18.286h73.143c10.057 0 18.286-8.229 18.286-18.286s-8.229-18.286-18.286-18.286z" />
<glyph unicode="&#xe91a;" horiz-adv-x="786" d="M438.857 448h-182.857c-10.057 0-18.286 8.229-18.286 18.286s8.229 18.286 18.286 18.286h182.857c10.057 0 18.286-8.229 18.286-18.286s-8.229-18.286-18.286-18.286z" />
<glyph unicode="&#xe91b;" horiz-adv-x="786" d="M676.571 448h-164.571c-10.057 0-18.286 8.229-18.286 18.286s8.229 18.286 18.286 18.286h164.571c10.057 0 18.286-8.229 18.286-18.286s-8.229-18.286-18.286-18.286z" />
<glyph unicode="&#xe91c;" horiz-adv-x="786" d="M768-64c0 0-741.303 0-749.714 0-6.217 0-18.286 11.886-18.286 18.286 0 8.411 0 292.571 0 292.571h786.286c0 0 0-284.16 0-292.571 0-6.4-11.886-18.286-18.286-18.286-8.411 0 0 0 0 0z" />
<glyph unicode="&#xe91d;" horiz-adv-x="786" d="M290.194 47.909c-3.291-10.789-7.497-19.749-12.434-27.063s-10.606-12.983-16.823-17.189c-6.4-4.206-12.251-7.314-18.103-9.326-5.851-2.194-11.154-3.474-16.091-4.023-4.754-0.549-8.411-0.914-10.789-0.914h-69.669v184.32h55.406c15.543 0 29.257-2.56 40.96-7.314 11.703-4.937 21.577-11.52 29.257-19.749 7.68-8.046 13.531-17.371 17.371-27.794s5.669-21.211 5.669-32.183c0-15.177-1.646-28.16-4.754-38.766zM249.966 30.903c9.143 12.983 13.531 31.817 13.531 56.503 0 7.68-0.914 15.36-2.743 22.857s-5.303 14.263-10.606 20.297c-5.303 6.034-12.434 10.971-21.394 14.811-8.96 3.657-20.663 5.669-34.926 5.669h-17.554v-139.52h29.806c20.297 0 34.926 6.4 43.886 19.383z" />
<glyph unicode="&#xe91e;" horiz-adv-x="786" d="M476.709 38.4c-3.84-11.703-9.326-21.577-16.274-29.44-6.766-7.863-14.994-13.714-24.137-17.737-9.326-4.023-19.383-6.034-30.354-6.034s-21.211 2.011-30.354 6.034c-9.326 4.023-17.371 9.874-24.32 17.737s-12.251 17.737-16.274 29.44c-3.84 11.886-5.851 25.6-5.851 41.143 0 15.36 2.011 29.074 5.851 40.777 4.023 11.703 9.326 21.577 16.274 29.44s14.994 13.714 24.32 17.737c9.143 4.206 19.383 6.217 30.354 6.217s21.029-2.011 30.354-6.217c9.143-4.023 17.371-9.874 24.137-17.737 6.949-7.863 12.434-17.737 16.274-29.44 4.023-11.703 5.851-25.417 5.851-40.777 0-15.543-1.829-29.257-5.851-41.143zM422.766 13.349c5.486 2.377 10.606 6.4 14.994 11.886s7.863 12.617 10.423 21.577c2.377 8.96 3.84 19.749 4.023 32.549-0.183 12.617-1.463 23.223-4.023 32-2.377 8.777-5.669 15.909-9.874 21.577-4.389 5.669-9.143 9.691-14.629 12.251-5.303 2.56-10.971 3.84-17.006 3.84-6.217 0-12.069-1.28-17.737-3.657-5.486-2.194-10.606-6.217-14.994-11.703-4.389-5.669-7.863-12.8-10.24-21.76-2.56-8.777-4.023-19.566-4.023-32.366 0-12.617 1.463-23.223 3.84-32 2.377-8.96 5.669-16.091 9.874-21.76 4.389-5.486 9.143-9.691 14.629-12.251s11.154-3.84 17.189-3.84c6.034 0 11.886 1.28 17.554 3.657z" />
<glyph unicode="&#xe91f;" horiz-adv-x="786" d="M658.286 5.303c-6.766-6.766-14.629-11.703-23.223-15.177-8.777-3.291-18.103-4.937-27.977-4.937-10.971 0-21.211 2.011-30.354 6.034-9.326 4.023-17.371 9.874-24.32 17.737s-12.251 17.737-16.274 29.44c-3.84 11.886-5.851 25.6-5.851 41.143 0 15.36 2.011 29.074 5.851 40.777 4.023 11.703 9.326 21.577 16.274 29.44s14.994 13.714 24.32 17.737c9.326 4.206 19.566 6.217 30.354 6.217 9.874 0 19.2-1.646 27.977-4.937 8.594-3.474 16.457-8.411 23.223-14.994l-20.846-18.651c-4.023 4.937-8.777 8.411-13.714 10.606-5.12 2.194-10.423 3.291-15.909 3.291-6.217 0-12.069-1.28-17.737-3.474-5.486-2.377-10.606-6.4-14.994-11.886-4.389-5.669-7.863-12.8-10.24-21.76-2.56-8.777-3.84-19.566-4.023-32.366 0.183-12.617 1.463-23.223 3.84-32 2.377-8.96 5.669-16.091 10.057-21.76 4.206-5.486 8.96-9.509 14.446-12.251 5.486-2.56 11.154-3.84 17.189-3.84s11.52 1.097 16.823 3.291c5.303 2.194 10.057 5.669 14.446 10.423l20.663-18.103z" />
</font>
</defs>
</svg>
