<svg width="146" height="28" viewBox="0 0 146 28" xmlns="http://www.w3.org/2000/svg" xmlns:xlink="http://www.w3.org/1999/xlink"><title>Group 5</title><defs><path d="M27.812 6.03c0-3.513-2.652-6.03-6.296-6.03-3.626 0-6.277 2.517-6.277 6.03 0 3.513 2.65 6.03 6.276 6.03 3.644 0 6.296-2.517 6.296-6.03z" id="a"/><mask id="d" x="0" y="0" width="12.573" height="12.06" fill="#fff"><use xlink:href="#a"/></mask><path d="M62.903 12.06c3.643 0 6.295-2.517 6.295-6.03 0-3.513-2.652-6.03-6.295-6.03-3.626 0-6.278 2.517-6.278 6.03 0 3.513 2.652 6.03 6.278 6.03z" id="b"/><mask id="e" x="0" y="0" width="12.573" height="12.06" fill="#fff"><use xlink:href="#b"/></mask><path d="M139.09 12.06c3.645 0 6.297-2.517 6.297-6.03 0-3.513-2.652-6.03-6.296-6.03-3.625 0-6.277 2.517-6.277 6.03 0 3.513 2.652 6.03 6.278 6.03z" id="c"/><mask id="f" x="0" y="0" width="12.573" height="12.06" fill="#fff"><use xlink:href="#c"/></mask></defs><g fill="none" fill-rule="evenodd" opacity=".5"><path d="M0 14h2.562v-2.15h7.504V14h2.56V9.665h-1.08V.192h-8.55l-.705 5.96C1.913 9.228 1.228 9.7 0 9.858V14zm4.834-7.673l.47-3.95h3.66v7.288h-5.59c.757-.68 1.28-1.765 1.46-3.338zM31.307.192V11.85h5.682c2.58 0 3.986-1.695 3.986-3.705S39.55 4.44 36.99 4.44h-3.12V2.376h6.222V.192h-8.785zm5.34 6.432c.992 0 1.713.577 1.713 1.52 0 .927-.72 1.52-1.713 1.52H33.87v-3.04h2.777zm10.17 5.226V7.708h3.066c2.597 0 4.04-1.73 4.04-3.758 0-2.045-1.425-3.758-4.04-3.758h-5.628V11.85h2.56zm2.723-6.327h-2.724V2.377h2.724c1.01 0 1.768.594 1.768 1.573 0 .96-.758 1.573-1.768 1.573zm31.668 6.327V9.665h-5.953v-2.64h5.827V4.842h-5.827V2.378h5.953V.192h-8.515V11.85h8.515zm9.28 2.15h2.563v-2.15h7.505V14h2.56V9.665h-1.08V.192h-8.552l-.703 5.96c-.38 3.076-1.064 3.548-2.29 3.706V14zm4.835-7.673l.47-3.95h3.66v7.288h-5.59c.757-.68 1.28-1.765 1.46-3.338zm19.496 5.523V9.665h-5.954v-2.64h5.827V4.842h-5.827V2.378h5.953V.192h-8.515V11.85h8.514zm2.97.21c2.455 0 4.258-.89 4.836-5.733l.47-3.95h3.66v9.473h2.58V.192h-8.55l-.704 5.96c-.38 3.076-1.082 3.706-2.29 3.706v2.202z" fill="#000"/><use stroke="#000" mask="url(#d)" stroke-width="6" fill="#FFF" xlink:href="#a"/><use stroke="#000" mask="url(#e)" stroke-width="6" fill="#FFF" xlink:href="#b"/><use stroke="#000" mask="url(#f)" stroke-width="6" fill="#FFF" xlink:href="#c"/><path d="M6.91 26.753c2.266 0 3.764-1.686 3.764-3.877 0-2.19-1.498-3.876-3.763-3.876-2.136 0-3.576 1.483-3.75 3.472H1.662v-3.348H1v7.494h.662v-3.562h1.486c.082 2.1 1.545 3.697 3.763 3.697zm0-.584c-1.87 0-3.065-1.406-3.065-3.294 0-1.91 1.196-3.292 3.066-3.292 1.86 0 3.067 1.382 3.067 3.292 0 1.888-1.208 3.293-3.066 3.293zm7.152.448v-3.112h2.24c1.476 0 2.335-1.012 2.335-2.19 0-1.18-.847-2.192-2.334-2.192H13.4v7.494h.662zm2.17-3.697h-2.17V19.71h2.17c1.023 0 1.708.663 1.708 1.607 0 .943-.685 1.606-1.707 1.606zm5.538 3.698l4.877-6.438v6.438h.662v-7.494h-.674l-4.855 6.348v-6.348h-.66v7.494h.65zM29.768 28h.674v-1.382h6.155V28h.662v-1.966h-.686v-6.91H32.22l-.5 3.696c-.372 2.776-.965 3.225-1.952 3.247V28zm2.625-5.124l.418-3.168h3.09v6.326h-4.83c.614-.394 1.067-1.26 1.323-3.158zm7.998 3.742l4.88-6.438v6.438h.66v-7.494h-.673l-4.854 6.348v-6.348h-.662v7.494h.65zm8.975-7.494h-.662v1.92c0 1.45.86 2.462 2.613 2.462.813 0 1.405-.113 1.95-.248v3.36h.663v-7.494h-.663v3.56a8.306 8.306 0 0 1-1.904.237c-1.29 0-1.998-.662-1.998-1.875v-1.92zm12.493 7.494v-.584h-4.25v-2.967h4.17v-.584h-4.17v-2.775h4.25v-.584h-4.912v7.494h4.912zm6.36.135c1.232 0 2.138-.517 2.823-1.337l-.556-.337c-.488.65-1.336 1.09-2.265 1.09-1.824 0-3.23-1.36-3.23-3.294 0-1.955 1.406-3.292 3.23-3.292.928 0 1.776.438 2.264 1.09l.557-.348C70.38 19.528 69.45 19 68.22 19c-2.196 0-3.926 1.573-3.926 3.876 0 2.304 1.73 3.877 3.925 3.877zm10.82-.135l-3.61-3.92 3.298-3.574h-.848l-3.74 4.1v-4.1h-.66v7.494h.66V24l.86-.91 3.194 3.528h.847zm8.708 0l-3.17-7.494h-.825l-3.17 7.494h.767l.767-1.843h4.1l.766 1.843h.766zm-1.753-2.427h-3.658l1.823-4.38 1.835 4.38zm4.41 2.428l2.17-3.1h1.697v3.1h.673v-7.494h-2.89c-1.337 0-2.36.82-2.36 2.19 0 1.36.988 2.113 2.15 2.158L89.6 26.618h.803zm1.707-3.685c-1.034 0-1.72-.675-1.72-1.618 0-.944.686-1.607 1.72-1.607h2.16v3.225h-2.16zm13.872 3.685v-.73c2.183-.113 3.553-1.337 3.553-3.012 0-1.663-1.37-2.898-3.553-3.01v-.742h-.662v.74c-2.195.114-3.554 1.35-3.554 3.012 0 1.675 1.36 2.9 3.554 3.012v.73h.662zm-3.52-3.742c0-1.348 1.07-2.314 2.858-2.427v4.853c-1.79-.1-2.857-1.078-2.857-2.427zm6.365 0c0 1.35-1.092 2.326-2.845 2.427V20.45c1.753.112 2.845 1.078 2.845 2.426zm4.085 3.742l4.877-6.438v6.438h.66v-7.494h-.673l-4.854 6.348v-6.348h-.662v7.494h.652zm9.217 0v-3.112h2.24c1.476 0 2.335-1.012 2.335-2.19 0-1.18-.848-2.192-2.334-2.192h-2.902v7.494h.66zm2.17-3.697h-2.17V19.71h2.17c1.023 0 1.708.663 1.708 1.607 0 .943-.685 1.606-1.707 1.606zm12.134 3.698v-7.494h-1l-2.623 6.18-2.636-6.18h-.987v7.494h.662V20l2.833 6.618h.255L135.76 20v6.618h.674zm9.392 0l-3.17-7.494h-.825l-3.17 7.494h.767l.766-1.843h4.1l.766 1.843h.766zm-1.754-2.427h-3.658l1.823-4.38 1.835 4.38z" fill="#000" opacity=".6"/></g></svg>