<svg xmlns="http://www.w3.org/2000/svg" width="146" height="28"><path d="M0 13.81h2.56v-2.15h7.51v2.15h2.56V9.47h-1.08V0H2.99l-.7 5.96C1.91 9.04 1.23 9.51 0 9.67zm90.49 0h2.56v-2.15h7.5v2.15h2.57V9.47h-1.09V0h-8.55l-.7 5.96c-.38 3.08-1.06 3.55-2.29 3.71zM31.31 0v11.66h5.68c2.58 0 3.99-1.7 3.99-3.71s-1.43-3.7-3.99-3.7h-3.12V2.18h6.22V0zm15.51 11.66V7.52h3.06c2.6 0 4.04-1.73 4.04-3.76C53.92 1.71 52.5 0 49.88 0h-5.63v11.66zm34.39 0V9.47h-5.96V6.83h5.83V4.65h-5.83V2.18h5.96V0h-8.52v11.66zm33.61 0V9.47h-5.95V6.83h5.82V4.65h-5.82V2.18h5.95V0h-8.52v11.66zM5.3 2.18h3.67v7.29h-5.6c.76-.68 1.28-1.76 1.46-3.34zm90.49 0h3.66v7.29h-5.59c.76-.68 1.28-1.76 1.46-3.34zM46.82 5.33V2.18h2.72c1.01 0 1.77.6 1.77 1.58 0 .96-.76 1.57-1.77 1.57zm-10.17 1.1c.99 0 1.71.58 1.71 1.52 0 .93-.72 1.52-1.71 1.52h-2.78V6.43zm81.14 3.24c1.21 0 1.91-.63 2.29-3.71l.71-5.96h8.55v11.66h-2.58V2.18h-3.67l-.46 3.95c-.58 4.85-2.39 5.74-4.84 5.74zM21.28 12.06c3.64 0 6.29-2.52 6.29-6.03 0-3.51-2.65-6.03-6.29-6.03C17.65 0 15 2.52 15 6.03c0 3.51 2.65 6.03 6.28 6.03zM63.28 12.06c3.64 0 6.29-2.52 6.29-6.03 0-3.51-2.65-6.03-6.29-6.03C59.65 0 57 2.52 57 6.03c0 3.51 2.65 6.03 6.28 6.03zM139.28 12.06c3.64 0 6.29-2.52 6.29-6.03 0-3.51-2.65-6.03-6.29-6.03-3.63 0-6.28 2.52-6.28 6.03 0 3.51 2.65 6.03 6.28 6.03zM10.67 22.88c0-2.19-1.49-3.88-3.76-3.88-2.14 0-3.58 1.48-3.75 3.47h-1.5v-3.35H1v7.5h.66v-3.56h1.49c.08 2.1 1.54 3.69 3.76 3.69 2.27 0 3.76-1.68 3.76-3.87zM29.77 28h.67v-1.38h6.16V28h.66v-1.97h-.69v-6.91h-4.35l-.5 3.7c-.37 2.78-.96 3.22-1.95 3.25zm76.21-1.38v-.73c2.18-.11 3.56-1.34 3.56-3.01 0-1.67-1.38-2.9-3.56-3.01v-.75h-.66v.75c-2.2.11-3.55 1.34-3.55 3.01 0 1.67 1.35 2.9 3.55 3.01v.73zm30.45 0v-7.5h-.99l-2.63 6.18-2.64-6.18h-.98v7.5h.66V20l2.83 6.62h.26l2.82-6.62v6.62zm9.4 0l-3.17-7.5h-.83l-3.17 7.5h.77l.76-1.84h4.1l.77 1.84zm-58.08 0l-3.17-7.5h-.83l-3.17 7.5h.77l.76-1.84h4.1l.77 1.84zm-16.71-1.2l-.56-.34c-.48.65-1.33 1.09-2.26 1.09-1.82 0-3.23-1.36-3.23-3.29 0-1.96 1.41-3.3 3.23-3.3.93 0 1.78.44 2.26 1.09l.56-.34c-.66-.8-1.59-1.33-2.82-1.33-2.2 0-3.93 1.57-3.93 3.88 0 2.3 1.73 3.87 3.93 3.87 1.23 0 2.14-.51 2.82-1.33zm-30.65 1.2l4.88-6.44v6.44h.66v-7.5h-.67l-4.86 6.35v-6.35h-.66v7.5zm-18.62 0l4.88-6.44v6.44h.66v-7.5h-.67l-4.86 6.35v-6.35h-.66v7.5zm91.14 0l4.88-6.44v6.44h.66v-7.5h-.67l-4.86 6.35v-6.35h-.66v7.5zm-33.87 0l-3.61-3.92 3.3-3.58h-.85l-3.74 4.1v-4.1h-.66v7.5h.66V24l.86-.91 3.19 3.53zM3.85 22.88c0-1.91 1.19-3.3 3.06-3.3 1.86 0 3.07 1.39 3.07 3.3 0 1.88-1.21 3.29-3.07 3.29-1.87 0-3.06-1.41-3.06-3.29zm86.55 3.74l2.17-3.1h1.7v3.1h.67v-7.5h-2.89c-1.33 0-2.36.82-2.36 2.19 0 1.36.99 2.12 2.15 2.16l-2.24 3.15zm-76.34 0v-3.11h2.24c1.48 0 2.34-1.02 2.34-2.2 0-1.18-.85-2.19-2.34-2.19h-2.9v7.5zm35.31-7.5h-.67v1.92c0 1.45.86 2.47 2.62 2.47.81 0 1.4-.12 1.95-.25v3.36h.66v-7.5h-.66v3.57c-.55.13-1.25.23-1.91.23-1.29 0-1.99-.66-1.99-1.88zm72.76 7.5v-3.11h2.24c1.48 0 2.33-1.02 2.33-2.2 0-1.18-.84-2.19-2.33-2.19h-2.9v7.5zm-60.27 0v-.59h-4.25v-2.96h4.17v-.59h-4.17v-2.77h4.25v-.59h-4.91v7.5zm-29.05-6.91h3.09v6.32h-4.83c.61-.39 1.07-1.25 1.32-3.15zm53.18 4.48h-3.66l1.83-4.38zm19.33-3.74v4.85c-1.79-.1-2.86-1.08-2.86-2.42 0-1.35 1.07-2.32 2.86-2.43zm.66 4.85v-4.85c1.76.11 2.85 1.08 2.85 2.43 0 1.34-1.09 2.32-2.85 2.42zm-13.87-2.37c-1.03 0-1.72-.67-1.72-1.62 0-.94.69-1.6 1.72-1.6h2.16v3.22zm-78.05-.01v-3.21h2.17c1.03 0 1.71.66 1.71 1.6 0 .95-.68 1.61-1.71 1.61zm108.07 0v-3.21h2.17c1.02 0 1.71.66 1.71 1.6 0 .95-.69 1.61-1.71 1.61zm21.94 1.27h-3.66l1.83-4.38z" fill="#fff"/></svg>