<svg id="SvgjsSvg1017" xmlns="http://www.w3.org/2000/svg" version="1.1" xmlns:xlink="http://www.w3.org/1999/xlink" xmlns:svgjs="http://svgjs.com/svgjs" width="28" height="39"><defs id="SvgjsDefs1018"></defs><path id="SvgjsPath1019" d="M640 2993C640 2993 654 2975.63 654 2967.94C654 2960.2400000000002 647.73 2954 640 2954C632.27 2954 626 2960.24 626 2967.94C626 2975.63 640 2993 640 2993Z " fill="#d82703" fill-opacity="1" transform="matrix(1,0,0,1,-626,-2954)"></path><path id="SvgjsPath1020" d="M632 2968C632 2963.58172 635.58172 2960 640 2960C644.41828 2960 648 2963.58172 648 2968C648 2972.41828 644.41828 2976 640 2976C635.58172 2976 632 2972.41828 632 2968Z " fill="#ffffff" fill-opacity="1" transform="matrix(1,0,0,1,-626,-2954)"></path></svg>