<svg id="SvgjsSvg1000" xmlns="http://www.w3.org/2000/svg" version="1.1" xmlns:xlink="http://www.w3.org/1999/xlink" xmlns:svgjs="http://svgjs.com/svgjs" width="74" height="74"><defs id="SvgjsDefs1001"></defs><path id="SvgjsPath1007" d="M821.26 1899.9C803.8 1909.97 797.81 1932.2900000000002 807.9 1949.75C817.97 1967.2 840.3 1973.18 857.75 1963.1C875.2 1953.03 881.18 1930.7099999999998 871.1 1913.26C861.03 1895.8 838.71 1889.81 821.26 1899.9ZM814.22 1946.1C806.15 1932.1299999999999 810.94 1914.28 824.9 1906.2199999999998C838.86 1898.1499999999999 856.73 1902.9399999999998 864.78 1916.8999999999999C872.8399999999999 1930.86 868.06 1948.7199999999998 854.1 1956.78C840.13 1964.84 822.28 1960.06 814.22 1946.1ZM852.64 1930.01C854.38 1931.03 854.37 1932.67 852.63 1933.68L833.67 1944.63C831.92 1945.64 830.5 1944.8200000000002 830.49 1942.8000000000002L830.39 1920.6800000000003C830.38 1918.6600000000003 831.79 1917.8500000000004 833.52 1918.8700000000003Z " fill="#ffffff" fill-opacity="1" transform="matrix(1,0,0,1,-802,-1894)"></path></svg>